<svg xmlns="http://www.w3.org/2000/svg" width="69.228" height="69.22" viewBox="0 0 69.228 69.22">
  <g id="Grupo_320" data-name="Grupo 320" transform="translate(-1769.01 -1906.142)">
    <path id="Trazado_47" data-name="Trazado 47" d="M259.852,81.136l3.214-3.694a2.006,2.006,0,0,1-1.766-.52,2.082,2.082,0,0,1-.661-1.593l-3.012,3.464-3.065-3.218,3.432-3.682a.839.839,0,0,0-.04-1.182l-1.133-1.056a.839.839,0,0,0-1.182.04l-3.3,3.54-3.79-3.98a.835.835,0,0,0-1.182-.028L246.242,70.3a.835.835,0,0,0-.028,1.181l3.924,4.121-3.226,3.46a.839.839,0,0,0,.04,1.181l1.133,1.056a.839.839,0,0,0,1.181-.04l3.093-3.319,3.141,3.3L245.46,92.781l2.428,2.113,9.839-11.315,9.25,9.71a.835.835,0,0,0,1.181.028l1.121-1.069a.835.835,0,0,0,.028-1.182Z" transform="translate(1545.82 1860.519)" fill="#1c2340"/>
    <path id="Trazado_48" data-name="Trazado 48" d="M250.941,64.515a11.95,11.95,0,0,1-1-1.448,1.566,1.566,0,0,1-.109-1.052,14.372,14.372,0,0,0,.706-4.085l.282,1.359.528-1.383c.54-1.411,1.242-1.306,2.649-.956a10.255,10.255,0,0,0,1.081.23l1.008.141-.593-.827c-.109-.153-.2-.282-.282-.4a5.467,5.467,0,0,0-.444-.589c-.911-1-1.061-1.734-.528-2.617a2.016,2.016,0,0,0,.294-.988c.012-1.242.79-1.815,2.04-2.335.528-.222,1.052-.448,1.581-.673l1.3-.56-.476-.456a3.08,3.08,0,0,0-1.21-.686c-.258-.093-.52-.177-.778-.262a14.614,14.614,0,0,1-1.786-.669,1.351,1.351,0,0,1-.617-.73,13.252,13.252,0,0,0-1.843-4.1l.153.141.185-.7a12.257,12.257,0,0,0-.234-7.355,1.169,1.169,0,0,1,.258-1.359c.274-.31.548-.625.863-.992l1.262-1.452-1.157.165c-.254.036-.484.069-.7.1-.444.06-.823.109-1.206.185a1.279,1.279,0,0,1-1.4-.581,17.467,17.467,0,0,0-1.746-1.75c-.383-.351-.782-.714-1.141-1.085a1.661,1.661,0,0,1-.464-.9,6.745,6.745,0,0,1,.089-1.347c.032-.246.064-.512.093-.8l.109-1.133-1.359,1.254c-.339.31-.617.569-.891.831a1.184,1.184,0,0,1-1.339.343c-.089-.024-.185-.04-.274-.065l.347.016-.351-.673a11.126,11.126,0,0,0-3.319-3.823.933.933,0,0,1-.476-.956c.089-.778.153-1.536.23-2.415.032-.387.069-.79.109-1.218l.1-1.141-.835.786c-.3.278-.577.54-.839.786-.585.544-1.093,1.016-1.593,1.512a1.273,1.273,0,0,1-1.431.315,12.748,12.748,0,0,0-6.218-.177l-.407-.423a7.859,7.859,0,0,1-1.512-3.363l-.089-.867-.641.589c-.093.089-.186.169-.278.246a6.556,6.556,0,0,0-.569.54,2.1,2.1,0,0,1-2.315.867,5.454,5.454,0,0,0-2.141-.077,1.193,1.193,0,0,1-1.323-.585c-.274-.4-.556-.782-.839-1.173l-1.923-2.673-.315,2.327c-.125.9-.238,1.722-.335,2.54a1.292,1.292,0,0,1-.815,1.093,12.275,12.275,0,0,0-4.718,4.254l.327-.871-1.069.645c-1.561.936-2.331.23-3.561-1.1-.137-.149-.274-.3-.415-.444l-.774-.8.028,1.117c0,.153,0,.266,0,.359a2.037,2.037,0,0,0,.028.431c.379,1.6-.04,2.573-1.363,3.149a.612.612,0,0,0-.246.19c-.4.528-.871.609-1.758.3l-3.682-1.3.125.73a4.049,4.049,0,0,0,.492,1.29l.081.153c.093.177.185.355.278.528.331.625.673,1.27.944,1.919a1.045,1.045,0,0,1-.044.73,13.125,13.125,0,0,0-1.359,5.476l-.165-.79-.577.794c-.186.254-.371.5-.552.742-.427.569-.831,1.1-1.186,1.69a.809.809,0,0,1-.831.5c-.444-.016-.879,0-1.383.008-.234,0-.48.012-.75.016l-1.113.016.827.742c.189.173.363.331.52.476.331.3.617.565.919.811a.788.788,0,0,1,.306,1.012,9.627,9.627,0,0,0-.387,2.6,1.292,1.292,0,0,1-.7,1.242c-.694.423-1.387.851-2.141,1.319l-1.952,1.206,1.1.206c.391.073.762.141,1.125.206.819.149,1.593.29,2.351.448.589.121.879.254,1.04.706a11.926,11.926,0,0,0,1.266,2.536l-.089-.081-.186.7a12.114,12.114,0,0,0,.823,8.811,2.428,2.428,0,0,1-.061,2.46c-.093.181-.2.359-.314.548-.109.173-.214.351-.311.528-.206.4-.4.794-.617,1.226l-.722,1.46,1.19-.319c.145-.036.258-.069.367-.1.371-.113.742-.234,1.113-.355.8-.262,1.633-.528,2.46-.714a1.559,1.559,0,0,1,1.218.407,1.871,1.871,0,0,1,.778,1.315c0,.44-.02.883-.044,1.4-.012.25-.024.512-.036.8l-.044,1.113,1.323-1.327c.347-.347.645-.641.936-.948a1.064,1.064,0,0,1,.77-.383l.387.677a11.649,11.649,0,0,0,3.9,4.222,1.094,1.094,0,0,1,.589,1.214c-.085.75-.161,1.5-.242,2.315l-.23,2.266.843-.766c.311-.282.609-.556.9-.819.653-.6,1.266-1.161,1.887-1.706a1.305,1.305,0,0,1,1.25-.375,12.511,12.511,0,0,0,5.347-.008l-.552.274.891.363c.375.153.734.306,1.077.456a20.563,20.563,0,0,0,2.343.907.909.909,0,0,1,.73.77c.1.387.222.77.339,1.153l.206.669,1,.512.056-.645c.153-1.738,1.077-2.077,2.734-2.093a2.073,2.073,0,0,1,1.8.613c.524.6,1.052,1.186,1.629,1.831l1.48,1.657.04-1.077c.016-.435.028-.855.04-1.262.028-.984.052-1.915.149-2.823a1.465,1.465,0,0,1,.552-.887,13.174,13.174,0,0,0,3.71-3.73l-.206.532.871-.282q.587-.188,1.125-.351c.835-.254,1.621-.5,2.379-.806a.765.765,0,0,1,.992.129c.323.294.661.561,1.052.867.186.145.383.3.6.472l.887.714-.274-1.657c-.056-.335-.1-.6-.149-.875a2.369,2.369,0,0,1,2.956-2.911c.613.117,1.214.254,1.911.411.343.077.706.161,1.1.246l1.109.242-1.48-2.065A6.1,6.1,0,0,0,250.941,64.515Zm-8.508-16.267c.246.153.476.286.69.411a8.677,8.677,0,0,1,1.109.722,1.857,1.857,0,0,1,.718.891c.145.657.246,1.343.343,2a21.3,21.3,0,0,0,.528,2.758,10.006,10.006,0,0,1,.278,1.383l-.3.117c-.331.133-.661.246-.984.359a9.013,9.013,0,0,0-2.085.919,1.888,1.888,0,0,1-2.335-.069c-.556-.339-1.117-.665-1.682-.992l-.742-.427-.23-.133-.855.544.129.335.387.98c.3.762.613,1.552.9,2.331a1.439,1.439,0,0,1-.242,1.367,22.346,22.346,0,0,0-2.036,4.069c-.056.161-.125.311-.189.468l-.028-.012a12.61,12.61,0,0,0-6.073-.98,1.178,1.178,0,0,1-1.266-.544c-.262-.379-.544-.738-.875-1.153-.157-.2-.327-.411-.512-.649l-.7-.907-.077,1.145c-.02.3-.04.573-.056.823-.036.52-.069.96-.085,1.4a.907.907,0,0,1-.686.944,13.24,13.24,0,0,0-2.573,1.464,11.426,11.426,0,0,1-2.008,1.149l.064-.278-.149-.169c-.173-.2-.339-.411-.512-.637a5.543,5.543,0,0,0-1.383-1.411c-1.266-.79-1.367-1.839-1.117-3.278.081-.472.129-.956.169-1.371a5.05,5.05,0,0,0,.008-.556c0-.1,0-.206,0-.331v-.972l-.722.649c-.3.274-.593.54-.875.8-.673.621-1.311,1.21-1.984,1.726a1.806,1.806,0,0,1-1.081.185c-.472-.036-.956-.113-1.427-.185a13.786,13.786,0,0,0-1.972-.214c-.335,0-.657-.024-.976-.052l-.032-.315c-.048-.468-.081-.94-.109-1.4a15.007,15.007,0,0,0-.419-3.1c-.411-1.456-.411-2.218.653-2.879a.529.529,0,0,0,.23-.468.842.842,0,0,1,0-.1l.056-.5-.5.016c-.161,0-.319.016-.476.028a4.026,4.026,0,0,1-.936,0,1.592,1.592,0,0,1-.786-.407c-.44-.431-.871-.9-1.286-1.347a21.5,21.5,0,0,0-2.4-2.335c-.278-.222-.536-.456-.782-.694a10.961,10.961,0,0,0,2.419-4.867,1.089,1.089,0,0,1,.839-.915c.48-.161.952-.359,1.411-.548.2-.085.407-.169.613-.25l.9-.359L207.468,42c-.186-.093-.367-.185-.556-.278-.439-.222-.891-.456-1.359-.661a1,1,0,0,1-.653-.948,18.076,18.076,0,0,0-.681-3.133,10.1,10.1,0,0,1-.371-1.677l.311-.125c.306-.121.6-.238.9-.351.7-.27,1.359-.528,2.02-.819a6.237,6.237,0,0,0,1.661-.972c.476-.427.907-.452,1.657-.085.4.194.8.4,1.2.593l.9.448.5-.786-.1-.214c-.1-.21-.19-.419-.282-.629-.218-.488-.448-1-.689-1.488a1,1,0,0,1,.113-1.085,24.618,24.618,0,0,0,1.911-3.924c.048-.137.1-.266.161-.4l.1.226.226.04c.407.073.819.165,1.226.254a13.7,13.7,0,0,0,2.956.436,2.25,2.25,0,0,1,2.1,1.218c.355.54.71,1.077,1.109,1.673l1.2,1.807.351-2.327c.137-.907.262-1.73.379-2.557a1.042,1.042,0,0,1,.7-.855,17.851,17.851,0,0,0,2.7-1.552,10.689,10.689,0,0,1,1.786-1.024l.153.226a11.879,11.879,0,0,0,3.5,3.5c.411.262.52.472.435.875a9.783,9.783,0,0,0-.145,1.177c-.016.21-.036.44-.064.7l-.117,1.153.847-.79c.169-.161.327-.3.468-.427a10.115,10.115,0,0,0,.754-.726,1.071,1.071,0,0,1,1.3-.306,16.977,16.977,0,0,0,4.073.6c.315,0,.625.024.931.052l0,.044c.032.468.052.907.077,1.319.048.923.089,1.722.2,2.524a9.868,9.868,0,0,0,.319,1.363,9.762,9.762,0,0,1,.27,1.089,1.325,1.325,0,0,1-.137.839c-.516.77-1.081,1.52-1.681,2.315-.234.31-.476.633-.722.964l-.617.831,1.419-.194c.246-.032.46-.06.669-.1.444-.077.887-.157,1.331-.238.411-.073.823-.149,1.23-.218a1.415,1.415,0,0,1,1.492.508,11.325,11.325,0,0,0,1.9,1.653c.286.21.549.435.8.661l-.137.278c-.2.4-.391.774-.585,1.141A27.636,27.636,0,0,0,245.7,46.18c-.234.6-.464.806-.948.871-.44.056-.875.141-1.375.234-.242.044-.5.1-.782.145l-1.113.2Zm-42.247-9.037c.036-.073.073-.157.1-.242a8.476,8.476,0,0,1-.456,6,3.386,3.386,0,0,0-.149.411,8.839,8.839,0,0,1,.436-6.036C200.142,39.3,200.162,39.257,200.186,39.212Zm49.985,7.379c.036-.081.077-.173.109-.266a9.047,9.047,0,0,1-.411,5.948c-.024.06-.052.117-.085.181a3.023,3.023,0,0,0-.129.3,8.806,8.806,0,0,1,.476-6.073Zm4.665.46a15.37,15.37,0,0,0,1.891.714c.254.085.508.165.762.254.1.032.19.065.278.1-.5.218-1.012.436-1.52.649-1.327.552-2.557,1.315-2.573,3.129a1.146,1.146,0,0,1-.173.548,2.858,2.858,0,0,0,.625,3.641c-.984-.246-2.141-.5-2.988.468l-.028-.129c-.242-1.149-.472-2.238-.665-3.3a1.152,1.152,0,0,1,.117-.286,2.45,2.45,0,0,0,.109-.238,9.5,9.5,0,0,0-3.331-11.738,10.291,10.291,0,0,1-1.75-1.516,2.2,2.2,0,0,0-1.762-.855,3.2,3.2,0,0,0-.54.048c-.411.073-.823.145-1.238.222-.44.081-.883.161-1.327.234h0c.032-.044.065-.085.1-.129.6-.8,1.177-1.565,1.71-2.351a2.191,2.191,0,0,0,.274-1.464,11.065,11.065,0,0,0-.29-1.186,8.682,8.682,0,0,1-.29-1.238c-.1-.77-.141-1.552-.19-2.456-.012-.214-.024-.431-.036-.661l.323.121c.806.3,1.5.561,2.173.863a.752.752,0,0,1,.181.407,9.722,9.722,0,0,0,4.25,7.859,12.193,12.193,0,0,1,4.831,6.992A2.185,2.185,0,0,0,254.837,47.051Zm-9.408-16.666a8.82,8.82,0,0,1,3.758,7.049,2.753,2.753,0,0,0,.056.488,8.756,8.756,0,0,1-3.706-7.053A1.4,1.4,0,0,0,245.429,30.385Zm.633-5.1c.173-.165.347-.327.536-.5a6.083,6.083,0,0,0-.044,1.141,2.492,2.492,0,0,0,.706,1.427c.379.391.786.762,1.182,1.121a16.148,16.148,0,0,1,1.661,1.661,2.122,2.122,0,0,0,2.234.879c.23-.044.464-.081.714-.117-.21.238-.4.464-.6.681a2.025,2.025,0,0,0-.423,2.226,11.054,11.054,0,0,1,.383,6.125l-.177-.161c-.746-.694-1.452-1.347-2.125-2a1.706,1.706,0,0,1-.052-.4,9.592,9.592,0,0,0-9.887-9.444,16.074,16.074,0,0,1-3.867-.581,3.042,3.042,0,0,0-.762-.109,1.79,1.79,0,0,0-1.407.681c-.1.113-.214.226-.335.339a6.114,6.114,0,0,1,.093-.669,1.582,1.582,0,0,0-.823-1.786,10.744,10.744,0,0,1-2.944-2.823,6.767,6.767,0,0,1,3.089-.319,1.266,1.266,0,0,1,.294.21l.069.056a10.189,10.189,0,0,0,6.718,2.423,14.233,14.233,0,0,1,3.6.488A2.032,2.032,0,0,0,246.062,25.288Zm-12.081-3.149a9.579,9.579,0,0,1,4.266,2.028c.069.052.129.1.194.141a9.173,9.173,0,0,1-4.311-2.044l-.06-.052C234.042,22.192,234.014,22.167,233.981,22.139Zm1.589-3.169a2.137,2.137,0,0,0,2.266-.536c.492-.484.992-.952,1.573-1.492l.012-.012c0,.028,0,.056-.008.089-.077.875-.141,1.629-.23,2.4A1.8,1.8,0,0,0,240,21.159a10.58,10.58,0,0,1,2.682,2.851c-.109,0-.218-.012-.331-.016-1.02-.048-1.984-.093-2.956-.173a1.26,1.26,0,0,1-.613-.335,9.524,9.524,0,0,0-12.133-.367,17.23,17.23,0,0,1-2.573,1.48,1.879,1.879,0,0,0-1.186,1.512c-.117.823-.242,1.641-.379,2.548l-.016.1c-.379-.569-.722-1.085-1.061-1.6a3.128,3.128,0,0,0-2.823-1.613,13.4,13.4,0,0,1-2.77-.415c-.319-.073-.641-.141-.96-.206.1-.129.194-.258.29-.383.46-.613.94-1.242,1.431-1.839a1.26,1.26,0,0,1,.359.032,9.881,9.881,0,0,0,8.323-1.835A11.62,11.62,0,0,1,235.57,18.97Zm-10.787,1.238a9.063,9.063,0,0,1-7.625,1.686,2.317,2.317,0,0,0-.476-.052,8.711,8.711,0,0,1,7.726-1.819,2.647,2.647,0,0,0,.524.077C224.884,20.135,224.836,20.167,224.784,20.208Zm-8.3-2.436a2.135,2.135,0,0,0,1.274-1.758c.1-.815.21-1.629.331-2.524l.024-.165.653.9c.278.383.556.77.831,1.161a2.041,2.041,0,0,0,2.169.944,4.436,4.436,0,0,1,1.786.056,3,3,0,0,0,3.186-1.129,2.81,2.81,0,0,1,.218-.222,9.793,9.793,0,0,0,1.234,2.649l-.427.214c-.871.44-1.77.9-2.665,1.319-.016.008-.121.044-.484-.044a9.662,9.662,0,0,0-11.48,6.4,23.507,23.507,0,0,1-1.847,3.782,1.846,1.846,0,0,0-.137,1.9c.23.464.444.944.653,1.411l-1.024-.508a2.142,2.142,0,0,0-2.617.222,5.392,5.392,0,0,1-1.431.823c-.637.282-1.29.536-1.98.8l-.375.145a6.024,6.024,0,0,1,.516-2.847s.06-.133.452-.319a9.842,9.842,0,0,0,5.315-6.214A11.669,11.669,0,0,1,216.485,17.772ZM204.569,30.45a8.972,8.972,0,0,1,4.335-4.294l.077-.036c.081-.036.165-.081.25-.125a8.79,8.79,0,0,1-4.258,4.222A2.362,2.362,0,0,0,204.569,30.45Zm-3.024-1.79a1.931,1.931,0,0,0,.065-1.444c-.286-.69-.637-1.355-.98-2-.093-.173-.186-.351-.278-.524l-.085-.161c-.044-.081-.089-.165-.129-.246l2.137.754a2.206,2.206,0,0,0,2.694-.532,3.075,3.075,0,0,0,1.919-3.5c.839.855,1.8,1.6,3.186,1.2-.02.052-.036.1-.056.153-.379,1.02-.71,1.9-1.061,2.758a1.524,1.524,0,0,1-.351.2l-.085.04a9.589,9.589,0,0,0-5.133,11.863,17.1,17.1,0,0,1,.649,2.984,1.863,1.863,0,0,0,1.161,1.633c.347.157.69.327,1.028.5-.371.153-.73.294-1.1.419a1.937,1.937,0,0,0-1.407,1.552,9.978,9.978,0,0,1-1.847,4.008c-.061-.1-.125-.214-.186-.319-.431-.738-.843-1.431-1.194-2.133a1.12,1.12,0,0,1,.129-.552,9.343,9.343,0,0,0,.367-7.053A12.142,12.142,0,0,1,201.545,28.66Zm-6.536,17.468c-.77-.161-1.548-.3-2.371-.452a.015.015,0,0,1-.012,0l.036-.02c.75-.464,1.44-.891,2.133-1.315a2.158,2.158,0,0,0,1.117-1.976,8.6,8.6,0,0,1,.347-2.351,1.626,1.626,0,0,0-.593-1.94c-.2-.157-.391-.331-.6-.52.355-.008.682-.008,1,0a1.658,1.658,0,0,0,1.6-.915c.327-.536.71-1.048,1.117-1.589l.044.206c.242,1.153.472,2.242.673,3.315a1.483,1.483,0,0,1-.1.266c-.028.056-.052.109-.077.165a9.65,9.65,0,0,0,3.073,11.75,21.182,21.182,0,0,1,2.3,2.246c.423.46.863.931,1.319,1.379a2.468,2.468,0,0,0,1.25.641,3.324,3.324,0,0,0,.565.04c-.823.948-.6,2.109-.29,3.238a14.294,14.294,0,0,1,.391,2.927c.02.3.04.613.065.923a6.3,6.3,0,0,1-2.665-1,1.457,1.457,0,0,1-.06-.4,9.631,9.631,0,0,0-4.238-7.762,11.627,11.627,0,0,1-4.343-5.581A1.957,1.957,0,0,0,195.009,46.128Zm9.472,15.19a9,9,0,0,1-3.722-7,2.737,2.737,0,0,0-.085-.52,8.681,8.681,0,0,1,3.726,6.984A2.433,2.433,0,0,0,204.48,61.318Zm-.185,5.234c-.21.222-.427.44-.665.677.016-.391.032-.75.028-1.117a2.729,2.729,0,0,0-1.1-1.988,2.389,2.389,0,0,0-1.948-.577c-.867.194-1.718.468-2.54.734-.254.081-.508.165-.762.246.157-.323.31-.629.472-.931.085-.165.181-.323.282-.48.121-.2.246-.4.355-.617a3.308,3.308,0,0,0,.056-3.238,11.144,11.144,0,0,1-.931-7.48l.206.194c.714.665,1.391,1.294,2.048,1.948.008.008.073.093.1.456.44,5.726,4.274,9.331,10.008,9.416a13.588,13.588,0,0,1,1.851.2c.488.077.992.153,1.5.194a2.655,2.655,0,0,0,1.673-.363c.7-.54,1.355-1.141,2.044-1.778.04-.036.081-.077.121-.113-.036.359-.077.734-.141,1.1-.25,1.436-.27,3.057,1.512,4.165a4.871,4.871,0,0,1,1.153,1.206c.1.133.206.266.31.4-.173.016-.343.032-.516.052-.835.085-1.7.169-2.548.21-.024,0-.161-.008-.548-.335a10,10,0,0,0-6.464-2.367,18.63,18.63,0,0,1-3.468-.407,2.878,2.878,0,0,0-.617-.073A1.947,1.947,0,0,0,204.3,66.552ZM216,69.6a9.586,9.586,0,0,1-4.391-2.129c-.02-.016-.056-.04-.081-.06a8.877,8.877,0,0,1,4.218,1.992C215.832,69.471,215.916,69.536,216,69.6Zm-.851,3.339a2.17,2.17,0,0,0-2,.573c-.629.548-1.246,1.117-1.9,1.718-.016.016-.036.032-.052.048h0c.081-.806.157-1.556.242-2.3a1.93,1.93,0,0,0-.988-2.044,10.414,10.414,0,0,1-3.19-3.226l.29.016c1.056.056,2.056.109,3.057.19a1,1,0,0,1,.456.234,9.591,9.591,0,0,0,12.343.379,12.253,12.253,0,0,1,2.4-1.371,1.757,1.757,0,0,0,1.222-1.714c.012-.343.036-.69.064-1.077.242.31.46.593.661.879a2.048,2.048,0,0,0,2.073.915,11.439,11.439,0,0,1,5.133.726c-.06.081-.121.165-.182.246-.492.665-.956,1.3-1.444,1.9a1.146,1.146,0,0,1-.351-.028,9.738,9.738,0,0,0-8.315,1.823A11.594,11.594,0,0,1,215.154,72.943Zm10.024-1.419a8.919,8.919,0,0,1,7.609-1.677,2.232,2.232,0,0,0,.5.052,8.772,8.772,0,0,1-7.7,1.807l-.117-.028a2.491,2.491,0,0,0-.411-.073C225.1,71.576,225.138,71.552,225.179,71.524Zm9.17,1.96A2.337,2.337,0,0,0,233.413,75c-.1.94-.129,1.887-.153,2.891,0,.056,0,.113,0,.173l-.04-.044c-.573-.641-1.1-1.23-1.625-1.823a2.842,2.842,0,0,0-2.375-.907h-.085c-1.335.012-2.71.246-3.307,1.661-.061-.206-.121-.407-.177-.613a1.771,1.771,0,0,0-1.319-1.379,21,21,0,0,1-2.246-.871c-.073-.032-.145-.065-.218-.093l.242-.121c1.044-.52,1.944-.968,2.855-1.4a1.245,1.245,0,0,1,.306.048l.141.032a9.586,9.586,0,0,0,11.432-6.444A21.222,21.222,0,0,1,238.8,62.2a2.326,2.326,0,0,0,.323-2.117c-.286-.794-.6-1.589-.907-2.359l-.133-.339.2.117c.556.323,1.113.641,1.661.98a2.773,2.773,0,0,0,3.27.052,8.329,8.329,0,0,1,1.887-.823l.488-.169a6.257,6.257,0,0,1-.54,2.911c-.012.02-.077.1-.4.25a9.734,9.734,0,0,0-5.315,6.105A12.2,12.2,0,0,1,234.348,73.483ZM245.4,61.277a8.848,8.848,0,0,1-4.307,4.278,4.456,4.456,0,0,0-.407.214,8.793,8.793,0,0,1,4.331-4.282A2.353,2.353,0,0,0,245.4,61.277Zm3.54,4.169a3.232,3.232,0,0,0-3.976,3.915c.016.1.032.194.052.294-.266-.21-.5-.4-.726-.6a1.575,1.575,0,0,0-1.093-.476,2.123,2.123,0,0,0-.819.185c-.722.3-1.488.532-2.3.782l-.274.085.109-.278c.383-1,.714-1.855,1.081-2.714a1.6,1.6,0,0,1,.48-.294A9.564,9.564,0,0,0,246.659,54.8a21.622,21.622,0,0,1-.5-2.649c-.1-.677-.2-1.379-.355-2.065a2.641,2.641,0,0,0-1.016-1.375,6.919,6.919,0,0,0-.911-.617c.347-.065.665-.121.98-.161a1.957,1.957,0,0,0,1.645-1.411,27.306,27.306,0,0,1,1.177-2.472c.1-.206.214-.411.319-.621a6.333,6.333,0,0,1,1.5,2.512,1.31,1.31,0,0,1-.113.294l-.044.1a9.763,9.763,0,0,0-.323,7.315,12.394,12.394,0,0,1,0,8.1,2.362,2.362,0,0,0,.173,1.734,12.132,12.132,0,0,0,1.073,1.561c.153.2.306.4.456.6l.153.21C250.163,65.7,249.558,65.564,248.941,65.447Z" transform="translate(1578.779 1895.112)" fill="#1c2340"/>
    <path id="Trazado_52" data-name="Trazado 52" d="M292.3,68.312l0-.081-.31-.016h-.089a2.44,2.44,0,0,0-1.976.625,4.245,4.245,0,0,0-.645.528c-.149.149-.278.266-.387.359a.952.952,0,0,1-.443.113c-.02-.016-.044-.032-.069-.048a.7.7,0,0,1,.02-.694c.057-.081.113-.161.182-.25a4.078,4.078,0,0,0,.335-.52,2.57,2.57,0,0,0,.456-2.561,1.176,1.176,0,0,0-2.254.613,2.475,2.475,0,0,1-.222.734c-.068.1-.149.214-.246.347l-.052.069a2.847,2.847,0,0,0-.226.359,4.678,4.678,0,0,0-.754,2.117,1.43,1.43,0,0,1-.375.879,1.22,1.22,0,0,1-.7.343,1.469,1.469,0,0,0-1.25,1.194,2.149,2.149,0,0,0,3,2.327,1.511,1.511,0,0,0,.806-.944,2.178,2.178,0,0,1,.568-.891,1.826,1.826,0,0,1,.718-.5,1.307,1.307,0,0,0,.331-.157,2.778,2.778,0,0,0,1.468-.569,3.235,3.235,0,0,0,.569-.44l.065-.06c.2-.194.351-.331.464-.431a1.435,1.435,0,0,1,.5-.181,1.173,1.173,0,0,0,1.2-.887A1.159,1.159,0,0,0,292.3,68.312Zm.1,1.222a.552.552,0,0,1-.585.419l-.032,0-.032,0a2.067,2.067,0,0,0-.79.282l-.044.032c-.125.109-.282.254-.508.468l-.065.06a2.854,2.854,0,0,1-.476.363l-.02.012a2.173,2.173,0,0,1-1.226.464h-.1l-.081.06a.725.725,0,0,1-.226.121,2.515,2.515,0,0,0-.968.649,2.748,2.748,0,0,0-.722,1.149.892.892,0,0,1-.472.56,1.555,1.555,0,0,1-.633.137,1.525,1.525,0,0,1-1.5-1.79.848.848,0,0,1,.73-.685,1.864,1.864,0,0,0,1.048-.516,2.019,2.019,0,0,0,.552-1.262,4.073,4.073,0,0,1,.661-1.847l.012-.024a2.726,2.726,0,0,1,.19-.3l.052-.069q.157-.218.266-.375l.024-.04a3.016,3.016,0,0,0,.294-1.012l0-.04-.008-.04a.553.553,0,0,1,.339-.621.534.534,0,0,1,.206-.04A.553.553,0,0,1,288.8,66a1.948,1.948,0,0,1-.4,2l-.016.024a3.807,3.807,0,0,1-.29.456c-.081.1-.149.2-.214.294l-.024.044a1.22,1.22,0,0,0,.165,1.48c.056.04.109.081.161.113l.052.032.06.008a1.515,1.515,0,0,0,.915-.189l.044-.028a5.392,5.392,0,0,0,.46-.419,3.338,3.338,0,0,1,.561-.456l.024-.02a1.8,1.8,0,0,1,1.524-.5l.121.024c.012,0,.024,0,.04.008h0A.555.555,0,0,1,292.4,69.534Z" transform="translate(1523.257 1862.887)" fill="#1c2340"/>
  </g>
</svg>
